<svg xmlns="http://www.w3.org/2000/svg" xmlns:xlink="http://www.w3.org/1999/xlink" viewBox="0 0 293.44 211.57"><defs><style>.cls-1{fill:url(#linear-gradient);}.cls-2{fill:#ce4d56;}.cls-3{fill:url(#linear-gradient-2);}.cls-4{fill:#fcd26d;}.cls-5{fill:url(#linear-gradient-3);}.cls-6{fill:#ef663c;}</style><linearGradient id="linear-gradient" x1="37.25" y1="218.28" x2="140.27" y2="158.27" gradientUnits="userSpaceOnUse"><stop offset="0" stop-color="#ce4952"/><stop offset="0.54" stop-color="#c6343c"/><stop offset="1" stop-color="#c1272d"/></linearGradient><linearGradient id="linear-gradient-2" x1="169.8" y1="62.8" x2="180.1" y2="4.73" gradientUnits="userSpaceOnUse"><stop offset="0" stop-color="#e5b52c"/><stop offset="0.28" stop-color="#e9bb33"/><stop offset="0.7" stop-color="#f4ca47"/><stop offset="1" stop-color="#ffd85a"/></linearGradient><linearGradient id="linear-gradient-3" x1="129.14" y1="58.5" x2="123.78" y2="104.08" gradientUnits="userSpaceOnUse"><stop offset="0" stop-color="#f75a2f"/><stop offset="0.35" stop-color="#f0572c"/><stop offset="0.88" stop-color="#dc4e24"/><stop offset="1" stop-color="#d64c22"/></linearGradient></defs><g id="Layer_2" data-name="Layer 2"><g id="Layer_1-2" data-name="Layer 1"><path class="cls-1" d="M0,211.57l196.43-33.86L84.48,138.61C56.22,162.65,1.48,209.35,0,211.57Z"/><path class="cls-2" d="M101,124.57s-6.65,5.64-16.52,14l111.45,38.92a2.09,2.09,0,0,0,1,.09l6.05-1.05Z"/><polygon class="cls-3" points="220.92 0.25 93.37 13.87 79.98 23.4 62.02 36.19 150 50 165.31 44.51 293.44 0 220.92 0.25"/><polygon class="cls-4" points="111.97 0.63 93.37 13.87 220.92 0.25 111.97 0.63"/><polygon class="cls-5" points="177.07 111.44 100.28 48.65 56 42 35 83 207 172.57 177.07 111.44"/><polygon class="cls-6" points="150.18 56.51 100.28 48.65 177.07 111.44 150.18 56.51"/></g></g></svg>